<svg width="30" height="30" viewBox="0 0 30 30" fill="none" xmlns="http://www.w3.org/2000/svg">
<g id="Group 1000001750">
<circle id="Ellipse 796" cx="15" cy="15" r="15" fill="#6755FB"/>
<path id="Vector" fill-rule="evenodd" clip-rule="evenodd" d="M12.408 8.045C13.2077 8.00818 13.4627 8 15.5 8C17.5373 8 17.7923 8.00886 18.5914 8.045C19.3905 8.08114 19.9359 8.20864 20.4132 8.39341C20.913 8.58227 21.3664 8.8775 21.7414 9.25932C22.1232 9.63364 22.4177 10.0864 22.6059 10.5868C22.7914 11.0641 22.9182 11.6095 22.955 12.4073C22.9918 13.2084 23 13.4634 23 15.5C23 17.5373 22.9911 17.7923 22.955 18.592C22.9189 19.3898 22.7914 19.9352 22.6059 20.4125C22.4177 20.913 22.1227 21.3665 21.7414 21.7414C21.3664 22.1232 20.913 22.4177 20.4132 22.6059C19.9359 22.7914 19.3905 22.9182 18.5927 22.955C17.7923 22.9918 17.5373 23 15.5 23C13.4627 23 13.2077 22.9911 12.408 22.955C11.6102 22.9189 11.0648 22.7914 10.5875 22.6059C10.087 22.4177 9.63351 22.1227 9.25864 21.7414C8.87708 21.3668 8.58181 20.9136 8.39341 20.4132C8.20864 19.9359 8.08182 19.3905 8.045 18.5927C8.00818 17.7916 8 17.5366 8 15.5C8 13.4627 8.00886 13.2077 8.045 12.4086C8.08114 11.6095 8.20864 11.0641 8.39341 10.5868C8.58208 10.0864 8.87758 9.63317 9.25932 9.25864C9.63366 8.87716 10.0867 8.58189 10.5868 8.39341C11.0641 8.20864 11.6095 8.08182 12.4073 8.045H12.408ZM18.5307 9.395C17.7398 9.35886 17.5025 9.35136 15.5 9.35136C13.4975 9.35136 13.2602 9.35886 12.4693 9.395C11.7377 9.42841 11.3409 9.55045 11.0764 9.65341C10.7266 9.78977 10.4764 9.95136 10.2139 10.2139C9.96503 10.4559 9.77353 10.7506 9.65341 11.0764C9.55045 11.3409 9.42841 11.7377 9.395 12.4693C9.35886 13.2602 9.35136 13.4975 9.35136 15.5C9.35136 17.5025 9.35886 17.7398 9.395 18.5307C9.42841 19.2623 9.55045 19.6591 9.65341 19.9236C9.77341 20.2489 9.965 20.5441 10.2139 20.7861C10.4559 21.035 10.7511 21.2266 11.0764 21.3466C11.3409 21.4495 11.7377 21.5716 12.4693 21.605C13.2602 21.6411 13.4968 21.6486 15.5 21.6486C17.5032 21.6486 17.7398 21.6411 18.5307 21.605C19.2623 21.5716 19.6591 21.4495 19.9236 21.3466C20.2734 21.2102 20.5236 21.0486 20.7861 20.7861C21.035 20.5441 21.2266 20.2489 21.3466 19.9236C21.4495 19.6591 21.5716 19.2623 21.605 18.5307C21.6411 17.7398 21.6486 17.5025 21.6486 15.5C21.6486 13.4975 21.6411 13.2602 21.605 12.4693C21.5716 11.7377 21.4495 11.3409 21.3466 11.0764C21.2102 10.7266 21.0486 10.4764 20.7861 10.2139C20.544 9.96505 20.2493 9.77355 19.9236 9.65341C19.6591 9.55045 19.2623 9.42841 18.5307 9.395V9.395ZM14.542 17.812C15.077 18.0347 15.6728 18.0648 16.2275 17.8971C16.7821 17.7294 17.2614 17.3743 17.5834 16.8924C17.9053 16.4106 18.05 15.832 17.9928 15.2553C17.9355 14.6786 17.6798 14.1398 17.2693 13.7307C17.0077 13.4692 16.6913 13.269 16.343 13.1444C15.9946 13.0199 15.623 12.9741 15.2549 13.0104C14.8867 13.0467 14.5312 13.1642 14.214 13.3544C13.8967 13.5446 13.6255 13.8028 13.42 14.1104C13.2145 14.4179 13.0797 14.7672 13.0254 15.1332C12.971 15.4991 12.9985 15.8725 13.1058 16.2265C13.2131 16.5805 13.3976 16.9063 13.6459 17.1805C13.8943 17.4547 14.2003 17.6704 14.542 17.812ZM12.7741 12.7741C13.1321 12.4161 13.557 12.1322 14.0247 11.9384C14.4925 11.7447 14.9938 11.645 15.5 11.645C16.0062 11.645 16.5075 11.7447 16.9753 11.9384C17.443 12.1322 17.8679 12.4161 18.2259 12.7741C18.5839 13.1321 18.8678 13.557 19.0616 14.0247C19.2553 14.4925 19.355 14.9938 19.355 15.5C19.355 16.0062 19.2553 16.5075 19.0616 16.9753C18.8678 17.443 18.5839 17.8679 18.2259 18.2259C17.503 18.9489 16.5224 19.355 15.5 19.355C14.4776 19.355 13.497 18.9489 12.7741 18.2259C12.0511 17.503 11.645 16.5224 11.645 15.5C11.645 14.4776 12.0511 13.497 12.7741 12.7741V12.7741ZM20.21 12.2191C20.2987 12.1354 20.3697 12.0348 20.4188 11.9232C20.468 11.8115 20.4942 11.6912 20.496 11.5693C20.4977 11.4473 20.475 11.3263 20.4292 11.2133C20.3833 11.1003 20.3153 10.9976 20.2291 10.9114C20.1428 10.8252 20.0402 10.7571 19.9272 10.7113C19.8142 10.6654 19.6931 10.6427 19.5712 10.6445C19.4492 10.6463 19.3289 10.6725 19.2173 10.7216C19.1057 10.7707 19.005 10.8417 18.9214 10.9305C18.7586 11.103 18.6695 11.3321 18.673 11.5693C18.6764 11.8064 18.7722 12.0329 18.9399 12.2006C19.1076 12.3683 19.334 12.464 19.5712 12.4675C19.8083 12.4709 20.0375 12.3818 20.21 12.2191V12.2191Z" fill="#E9EAEB"/>
</g>
</svg>
