<svg width="24" height="24" viewBox="0 0 24 24" fill="none" xmlns="http://www.w3.org/2000/svg">
<g id="download (4) 1" clip-path="url(#secComp-clip0)">
<path id="Vector" d="M16.6154 0.923077H7.38462C3.81601 0.923077 0.923077 3.81601 0.923077 7.38462V16.6154C0.923077 20.184 3.81601 23.0769 7.38462 23.0769H16.6154C20.184 23.0769 23.0769 20.184 23.0769 16.6154V7.38462C23.0769 3.81601 20.184 0.923077 16.6154 0.923077Z" stroke="black" stroke-opacity="0.35"/>
<path id="Vector_2" d="M9.23077 4.61538H6.46154C5.44194 4.61538 4.61538 5.44194 4.61538 6.46154V9.23077C4.61538 10.2504 5.44194 11.0769 6.46154 11.0769H9.23077C10.2504 11.0769 11.0769 10.2504 11.0769 9.23077V6.46154C11.0769 5.44194 10.2504 4.61538 9.23077 4.61538Z" fill="#5B3DF6"/>
<path id="Vector_3" d="M17.5385 4.61538H14.7692C13.7496 4.61538 12.9231 5.44194 12.9231 6.46154V9.23077C12.9231 10.2504 13.7496 11.0769 14.7692 11.0769H17.5385C18.5581 11.0769 19.3846 10.2504 19.3846 9.23077V6.46154C19.3846 5.44194 18.5581 4.61538 17.5385 4.61538Z" fill="black" fill-opacity="0.28"/>
<path id="Vector_4" d="M9.23077 12.9231H6.46154C5.44194 12.9231 4.61538 13.7496 4.61538 14.7692V17.5385C4.61538 18.5581 5.44194 19.3846 6.46154 19.3846H9.23077C10.2504 19.3846 11.0769 18.5581 11.0769 17.5385V14.7692C11.0769 13.7496 10.2504 12.9231 9.23077 12.9231Z" fill="black" fill-opacity="0.28"/>
<path id="Vector_5" d="M17.5385 12.9231H14.7692C13.7496 12.9231 12.9231 13.7496 12.9231 14.7692V17.5385C12.9231 18.5581 13.7496 19.3846 14.7692 19.3846H17.5385C18.5581 19.3846 19.3846 18.5581 19.3846 17.5385V14.7692C19.3846 13.7496 18.5581 12.9231 17.5385 12.9231Z" fill="#A594FF"/>
</g>
<defs>
<clipPath id="secComp-clip0">
<rect width="24" height="24" fill="white"/>
</clipPath>
</defs>
</svg>
